<svg xmlns="http://www.w3.org/2000/svg" width="32" height="32" viewBox="0 0 32 32" fill="none">
  <rect width="32" height="32" rx="4" fill="#0e0e0e"/>
  <path
    d="M16 2L28 9V23L16 30L4 23V9L16 2Z"
    stroke="#ff4500"
    stroke-width="1"
    fill="none"
    opacity="0.3"
  />
  <path
    d="M16 5L25.5 10.5V21.5L16 27L6.5 21.5V10.5L16 5Z"
    stroke="#ff8f70"
    stroke-width="0.8"
    fill="none"
    opacity="0.15"
  />
  <text
    x="11"
    y="22"
    font-family="sans-serif"
    font-weight="800"
    font-size="16"
    fill="#ff8f70"
  >D</text>
  <circle
    cx="21"
    cy="11"
    r="4.5"
    stroke="#ff4500"
    stroke-width="1.2"
    fill="none"
    opacity="0.7"
  />
  <line
    x1="24.2"
    y1="14.2"
    x2="27"
    y2="17"
    stroke="#ff4500"
    stroke-width="1.2"
    stroke-linecap="round"
    opacity="0.7"
  />
  <line x1="19" y1="8.5" x2="23" y2="8.5" stroke="#ff4500" stroke-width="0.4" opacity="0.3"/>
  <line x1="21" y1="6.5" x2="21" y2="15.5" stroke="#ff4500" stroke-width="0.4" opacity="0.3"/>
  <rect x="2" y="2" width="1.5" height="1.5" fill="#ff4500" opacity="0.2"/>
  <rect x="28.5" y="2" width="1.5" height="1.5" fill="#ff4500" opacity="0.2"/>
  <rect x="2" y="28.5" width="1.5" height="1.5" fill="#ff4500" opacity="0.2"/>
  <rect x="28.5" y="28.5" width="1.5" height="1.5" fill="#ff4500" opacity="0.2"/>
</svg>
